<svg fill="#fff" viewBox="0 0 24 24" xmlns="http://www.w3.org/2000/svg"><path d="m12 3-10 9h3v8h5v-6h3.4668c0.1721-0.115 0.3489-0.2238 0.5332-0.3203v-2.1797h4 1v0.5h3l-10-9z"/><path d="m16.5 22a3.5 3.5 0 0 1-3.5-3.5 3.5 3.5 0 0 1 3.5-3.5 3.5 3.5 0 0 1 3.5 3.5 3.5 3.5 0 0 1-3.5 3.5m3.515-6.305 0.71-0.71c-0.225-0.255-0.45-0.485-0.705-0.705l-0.71 0.72c-0.775-0.63-1.75-1-2.81-1a4.5 4.5 0 0 0-4.5 4.5 4.5 4.5 0 0 0 4.5 4.5c2.5 0 4.5-2.015 4.5-4.5 0-1.06-0.37-2.035-0.985-2.805m-4.015 3.305h1v-3h-1m2-3.5h-3v1h3z"/></svg>
