<?xml version="1.0" encoding="UTF-8"?>
<svg version="1.1" viewBox="0 0 1000 1000" xmlns="http://www.w3.org/2000/svg">
  <path d="m504.8 62.5-1.19 4.8457-1.173 5.9492-1.203 4.8555-1.186 5.9414-1.189 4.8281-1.274 4.8633-1.176 5.9688-1.215 3.637-2.371 1.193-3.658 1.203-3.59 1.166-4.83 1.205-2.379 1.184-3.574 1.17-3.65 1.297-4.77 1.195-1.193 1.199-1.18 1.164-2.465 1.211-1.187 1.194-2.387 1.179-1.195 1.281-1.186 2.374-1.273 1.189-1.186 2.391-1.185 2.459-1.233 2.373-1.158 1.23-1.184 1.158-1.207 2.393-1.279 2.463-1.185 1.189-1.19 2.363-1.195 2.383-1.168 4.852-1.195 6.035-1.188 7.145v2.455h-2.467l-3.549 1.201-2.418 1.203-3.642 1.172-2.395 1.191-2.377 1.196-2.459 1.156-1.179 1.304v2.387l1.179 4.756 3.647 1.273 3.584 1.184 3.642 1.19 4.76 1.189 2.487 1.197 3.57 1.196 2.363 1.191 3.654 1.27h2.391v27.628l1.158 2.391 1.233 2.379 1.185 2.465 1.186 1.179 1.273 2.405 1.186 2.363 1.195 3.662h-4.84l-4.76 1.184v15.64l-1.207 1.198h-4.849l-1.168-1.198v-13.269h-13.27l-2.386 1.203-1.198 1.193-1.189 2.453v15.573l-7.231-1.176-16.806-1.217-13.196-1.164h-18.017l-4.852 1.164-2.379 1.217-2.462 1.176-3.586 1.271-2.364 1.19-2.492 1.185-2.353 1.203-2.37 1.174-2.398 1.19-2.451 1.197-2.393 1.17-2.375 1.299-3.654 1.187-2.391 1.203-2.369 1.155-1.215 1.216-2.449 1.194-2.375 1.183-3.566 1.276-2.367 1.185-2.489 1.188-2.353 1.197-3.596 1.197-1.273 1.19-1.188 4.834-1.187 3.576-1.198 6.043v11.978l1.2 9.618 1.187 9.574 1.186 14.478 1.273 10.809 1.186 9.586 1.193 10.89 1.217 10.813 1.152 6.019 1.203 4.762 1.19 8.414 1.297 6.049 1.173 4.758 1.196 6.017 1.189 6.057 1.172 5.943 1.203 8.415 1.188 6.029 1.187 6.045 1.274 5.953 1.175 7.223 1.215 6.06 1.166 6.018 1.205 5.947 1.194 9.609 1.197 3.651 1.268 2.39 1.195 2.375 1.189 2.459 1.205 2.41 1.17 2.358 1.209 2.484 1.184 2.369 1.267 2.362 1.186 2.39 1.193 2.461 1.203 2.391 1.166 2.373 1.206 2.389 1.181 2.464 1.172 2.393 1.297 2.379 1.195 2.451 1.199 2.377 1.165 2.371 1.21 2.389 1.194 2.469 1.18 2.392 1.281 2.375 1.183 2.373 1.19 2.463 1.187 2.381 1.198 2.391 1.195 2.461 1.185 2.371 1.274 2.39 1.185 2.389 1.188 2.465 1.23 2.385 1.159 2.363 1.183 2.377 1.209 2.484 1.278 2.344 1.185 2.416 1.19 2.451 1.195 2.389 1.168 2.386 1.195 1.19 1.188 3.637 1.187 2.406 1.277 2.359 1.209 2.354 1.176 2.5 1.166 1.191 1.207 1.17 1.211 1.205 2.453 1.201 1.192 1.18 1.195 1.273 2.387 1.184 1.187 1.19 2.457 1.189 1.182 1.197 1.199 1.196 2.375 1.191 1.194 1.268 2.351 1.183 1.305 1.213 2.387 1.205 1.171 1.166h6.041l4.772-1.166v-1.205h1.191v3.549l2.453 1.207 3.582 1.277h3.663v10.797l1.189 19.223 1.186 19.195 1.197 19.215 1.168 19.299 1.195 4.75h1.19v1.203h-1.19v7.215h1.19v1.205h-1.19v3.646l1.19 12.008 1.185 1.174 1.279 1.207 1.207 1.184 1.182 1.267 2.391 1.186 1.187 1.193 1.184 1.203 1.275 1.166 1.186 1.205 5.953 1.184h2.461v9.609h-4.834l-6.041 1.281-5.944 1.184-6.056 1.188-1.168 1.191-1.197 1.195-1.186 1.196-1.189 2.461-1.278 1.183-1.207 1.186-1.178 1.232-1.164 1.158-1.207 1.184-1.211 1.207-1.183 1.279-1.27 2.373-1.191 1.198-1.195 1.167-1.198 1.196-1.189 1.187-1.19 1.19-1.183 1.277-1.274 2.385-1.179 1.164-1.2 1.207-1.205 1.211-1.171 1.183-1.192 1.27-1.195 1.189-1.305 2.395-1.156 1.189-1.195 1.19-1.194 1.184-1.17 1.273-1.205 1.18-1.199 1.199-1.182 2.375-1.273 1.191-1.184 1.198-1.187 1.156-1.19 1.304-1.197 1.196-1.195 1.191-1.192 2.375-1.269 1.201-1.184 1.18-1.211 1.273-1.207 1.184-1.166 1.19-1.176 1.187-1.209 2.395-1.279 1.191-1.187 2.451-1.188 2.418-1.193 2.344-1.168 1.209-1.197 2.465-1.19 2.381-1.185 1.168-1.278 1.197-1.209 2.375-1.181 1.277-1.159 2.391-1.232 1.16-1.188 2.418-1.183 2.459-1.276 1.185-1.185 2.391v8.428l2e-3 20.385 1.185 1.197 2.459 1.267 2.418 1.198 3.551 1.191 2.463 1.207 2.385 1.164 2.363 1.215 3.652 1.178 2.385 1.271 2.373 1.19 3.664 1.185 2.387 1.203 3.574 1.174 2.457 1.19 2.381 1.195 3.569 1.174 2.351 1.297 2.5 1.183 3.568 1.211 2.379 1.151 2.457 1.218 2.379 1.192 3.584 1.179 2.453 1.28 2.418 1.179 48.008 1.192 50.498 1.199h26.457l3.635-1.199 3.564-1.192 4.858-1.179 3.557-1.28 3.584-1.179 4.841-1.192 3.578-1.218 4.877-1.151 3.551-1.211 3.651-1.183 4.748-1.297 3.673-1.174 3.549-1.195 4.856-1.19 3.582-1.174 3.644-1.203 3.586-1.185 4.715-1.19 4.861-1.271 3.586-1.178 3.647-1.215 1.189-1.164 1.198-21.59v-21.736l-1.198-1.16-1.189-1.182-1.19-1.209-1.183-1.277-1.274-1.186-1.179-1.189-1.202-1.197-1.205-1.168-1.169-1.194-1.192-1.187-1.195-2.465-1.305-1.209-1.156-1.178-1.195-1.166-1.194-1.205-1.17-1.213-1.205-1.183-1.199-1.268-1.182-1.191-1.271-1.198-1.186-1.197-1.187-1.187-1.192-1.19-1.195-1.184-1.195-1.273-1.192-1.18-1.267-2.406-1.186-1.17-1.211-1.191-1.207-1.196-1.164-1.304-1.178-1.156-1.209-1.198-1.277-1.191-1.187-1.17-1.188-1.205-1.195-1.199-1.055-1.067c-36.139 36.141-72.279 72.28-108.42 108.42-22.855-22.857-45.711-45.713-68.566-68.57 51.973-51.973 103.95-103.95 155.92-155.92l0.423-7.166c-52.115-52.114-104.23-104.23-156.34-156.34l67.152-67.152c0.471-0.472 0.943-0.943 1.414-1.414 35.29 35.289 70.58 70.579 105.87 105.87l0.049-0.641v-10.802h26.424l1.199-1.276h5.92l1.305 1.276 3.556 1.183 2.407 1.188 2.453 1.23h5.957l2.459 1.16h5.943l2.485-1.16 2.375-1.23 2.365-1.188 1.195-1.183 1.19-2.461 1.185-5.954v-12.074l-1.185-4.767-2.385-1.186-3.551-1.267-2.467-1.184-2.385-1.207h-4.765v-3.565l-1.27-3.662-1.189-3.564-1.197-3.664-1.198-1.188-2.379-1.185-1.183-1.205-1.274-1.172-2.381-1.19-1.205-1.195-1.169-1.174h-2.387l-14.442 1.174-1.197 1.195-2.385 1.19-1.267 1.172-1.186 1.205-2.418 1.185-1.164 1.188h-1.178l-1.209-1.188h-4.847v-3.562l1.195-1.19 1.188-15.652 1.187-14.453 1.277-16.828 1.209-12.002 1.178-14.445 1.164-14.358 1.207-14.459v-11.998h50.52l2.363 1.19 2.375 1.189 2.486 1.197 3.573 1.198 2.371 1.189 2.461 1.27h3.582l3.652-1.27 3.582-1.189 3.559-1.198 3.65-1.197 1.205-1.189 1.168-3.647 1.203-2.381 1.194-3.564v-4.854l-1.194-3.566-1.203-2.381-1.168-4.838-1.205-1.195-3.65-1.196-1.196-1.191-3.572-1.268-2.375-1.183-3.652-1.213h-2.387l-2.379 1.213-2.461 1.183-2.418 1.268-2.342 1.191-2.486 1.196-2.373 1.195-1.197 1.191v1.19h-1.168v-1.19h-15.656l-1.198 1.19h-2.377l-1.183-1.19h-14.438l-1.203-1.191h-2.381l-1.271 1.191h-8.414v-11.986h1.267v-4.861h-1.267v-1.196h1.267l1.192-9.566 1.195-14.476 1.195-15.567 1.192-14.449v-1.215l-1.192-21.652-1.195-1.19-1.195-1.197-1.192-1.197-1.267-1.188-1.186-1.185-1.211-2.459-1.207-1.194-1.164-1.216-1.178-1.155-1.209-1.203-1.277-1.187-1.187-1.299-1.188-1.17-1.195-1.197-1.168-1.19-1.197-1.174-1.188-1.203-3.672-1.185h-1.183v-3.637h-2.389v-14.397l-1.188-1.267-1.183-1.186-3.656-1.193-3.577-1.203-10.902-1.166h-1.172l-3.553 1.166v13.269h-3.582v-2.463l-4.832-1.191h-2.392v3.654h-1.195v-3.654h-1.27v-1.203h1.27v-6.016h-1.27v-1.193h1.27v-2.369l1.195-1.205 1.189-1.184 1.203-2.469 1.174-1.193 1.207-2.363v-1.211l1.184-1.194 1.267-2.46v-2.374l2.377-3.58 1.204-2.461v-22.773l3.554-1.211 7.237-1.183 2.375-1.27 1.281-1.191 2.371-1.196 2.385-1.197 1.195-1.189 2.461-1.19 2.371-1.184 2.391-1.273 1.181-1.18 1.209-1.199 1.28-1.205v-6.019l-3.67-1.196-3.579-1.191-4.839-1.172-6.037-1.203h-2.375v-3.656l-1.209-5.954-1.166-4.855-1.2-7.223-1.193-3.55-1.299-1.196-1.17-1.189-1.183-2.463-1.204-1.209-1.167-3.572-1.204-1.188-1.193-2.459-1.184-1.185-1.267-2.391-1.186-1.189-1.207-2.374-1.172-1.281-1.203-1.179-3.654-1.194-2.389-1.211-3.588-1.164-3.634-1.199-2.391-1.195-3.559-1.297-2.47-1.17-3.543-1.184-3.596-1.205-2.459-1.166-3.582-1.203h-3.648v-6.0371l-1.184-4.7617-1.193-7.2441-1.217-2.4473-1.154-4.752-1.204-4.8554-1.187-5.9551-1.299-4.832-1.172-1.1973h-1.195z" fill="#fff" stroke-miterlimit="1" stroke-width="0" style="paint-order:markers stroke fill"/>
  <path d="M 850,540.286 809.714,500 650,659.714 490.286,500 450,540.286 609.714,700 450,859.714 490.286,900.003 650,740.286 809.714,900.003 850,859.714 690.286,700 Z" fill="#fff"/>
</svg>
